<svg xmlns="http://www.w3.org/2000/svg" width="100" height="100" viewBox="0 0 100 100"><g stroke="rgba(174,180,194,0.35)" stroke-width="1.2"><line x1="20" y1="20" x2="40" y2="20" /><line x1="20" y1="20" x2="20" y2="40" /><line x1="40" y1="20" x2="60" y2="20" /><line x1="40" y1="20" x2="40" y2="40" /><line x1="60" y1="20" x2="80" y2="20" /><line x1="60" y1="20" x2="60" y2="40" /><line x1="80" y1="20" x2="80" y2="40" /><line x1="20" y1="40" x2="40" y2="40" /><line x1="20" y1="40" x2="20" y2="60" /><line x1="40" y1="40" x2="60" y2="40" /><line x1="40" y1="40" x2="40" y2="60" /><line x1="60" y1="40" x2="80" y2="40" /><line x1="60" y1="40" x2="60" y2="60" /><line x1="80" y1="40" x2="80" y2="60" /><line x1="20" y1="60" x2="40" y2="60" /><line x1="20" y1="60" x2="20" y2="80" /><line x1="40" y1="60" x2="60" y2="60" /><line x1="40" y1="60" x2="40" y2="80" /><line x1="60" y1="60" x2="80" y2="60" /><line x1="60" y1="60" x2="60" y2="80" /><line x1="80" y1="60" x2="80" y2="80" /><line x1="20" y1="80" x2="40" y2="80" /><line x1="40" y1="80" x2="60" y2="80" /><line x1="60" y1="80" x2="80" y2="80" /></g><circle cx="20" cy="20" r="3" fill="#F0509B"/><circle cx="40" cy="20" r="3" fill="#9B53E8"/><circle cx="60" cy="20" r="3" fill="#3F6BF0"/><circle cx="80" cy="20" r="3" fill="#27C7D9"/><circle cx="20" cy="40" r="3" fill="#9B53E8"/><circle cx="40" cy="40" r="3" fill="#3F6BF0"/><circle cx="60" cy="40" r="3" fill="#27C7D9"/><circle cx="80" cy="40" r="3" fill="#43D49A"/><circle cx="20" cy="60" r="3" fill="#3F6BF0"/><circle cx="40" cy="60" r="3" fill="#27C7D9"/><circle cx="60" cy="60" r="3" fill="#43D49A"/><circle cx="80" cy="60" r="3" fill="#F2C53D"/><circle cx="20" cy="80" r="3" fill="#27C7D9"/><circle cx="40" cy="80" r="3" fill="#43D49A"/><circle cx="60" cy="80" r="3" fill="#F2C53D"/><circle cx="80" cy="80" r="3" fill="#F0509B"/></svg>
