<svg xmlns="http://www.w3.org/2000/svg" width="100" height="100" viewBox="0 0 100 100"><g transform="rotate(45 50 50)"><g stroke="rgba(174,180,194,0.35)" stroke-width="1.2"><line x1="30" y1="30" x2="43.333" y2="30" /><line x1="30" y1="30" x2="30" y2="43.333" /><line x1="43.333" y1="30" x2="56.667" y2="30" /><line x1="43.333" y1="30" x2="43.333" y2="43.333" /><line x1="56.667" y1="30" x2="70" y2="30" /><line x1="56.667" y1="30" x2="56.667" y2="43.333" /><line x1="70" y1="30" x2="70" y2="43.333" /><line x1="30" y1="43.333" x2="43.333" y2="43.333" /><line x1="30" y1="43.333" x2="30" y2="56.667" /><line x1="43.333" y1="43.333" x2="56.667" y2="43.333" /><line x1="43.333" y1="43.333" x2="43.333" y2="56.667" /><line x1="56.667" y1="43.333" x2="70" y2="43.333" /><line x1="56.667" y1="43.333" x2="56.667" y2="56.667" /><line x1="70" y1="43.333" x2="70" y2="56.667" /><line x1="30" y1="56.667" x2="43.333" y2="56.667" /><line x1="30" y1="56.667" x2="30" y2="70" /><line x1="43.333" y1="56.667" x2="56.667" y2="56.667" /><line x1="43.333" y1="56.667" x2="43.333" y2="70" /><line x1="56.667" y1="56.667" x2="70" y2="56.667" /><line x1="56.667" y1="56.667" x2="56.667" y2="70" /><line x1="70" y1="56.667" x2="70" y2="70" /><line x1="30" y1="70" x2="43.333" y2="70" /><line x1="43.333" y1="70" x2="56.667" y2="70" /><line x1="56.667" y1="70" x2="70" y2="70" /></g><circle cx="30" cy="30" r="3" fill="#F0509B"/><circle cx="43.333" cy="30" r="3" fill="#9B53E8"/><circle cx="56.667" cy="30" r="3" fill="#3F6BF0"/><circle cx="70" cy="30" r="3" fill="#27C7D9"/><circle cx="30" cy="43.333" r="3" fill="#9B53E8"/><circle cx="43.333" cy="43.333" r="3" fill="#3F6BF0"/><circle cx="56.667" cy="43.333" r="3" fill="#27C7D9"/><circle cx="70" cy="43.333" r="3" fill="#43D49A"/><circle cx="30" cy="56.667" r="3" fill="#3F6BF0"/><circle cx="43.333" cy="56.667" r="3" fill="#27C7D9"/><circle cx="56.667" cy="56.667" r="3" fill="#43D49A"/><circle cx="70" cy="56.667" r="3" fill="#F2C53D"/><circle cx="30" cy="70" r="3" fill="#27C7D9"/><circle cx="43.333" cy="70" r="3" fill="#43D49A"/><circle cx="56.667" cy="70" r="3" fill="#F2C53D"/><circle cx="70" cy="70" r="3" fill="#F0509B"/></g></svg>
