<svg xmlns="http://www.w3.org/2000/svg" width="100" height="100" viewBox="0 0 100 100"><rect x="16" y="16" width="68" height="68" rx="2" fill="none" stroke="rgba(174,180,194,0.4)" stroke-width="1.2"/><circle cx="16" cy="16" r="3" fill="#F0509B"/><circle cx="50" cy="16" r="2.2" fill="#9B53E8"/><circle cx="84" cy="16" r="3" fill="#3F6BF0"/><circle cx="84" cy="50" r="2.2" fill="#27C7D9"/><circle cx="84" cy="84" r="3" fill="#43D49A"/><circle cx="50" cy="84" r="2.2" fill="#F2C53D"/><circle cx="16" cy="84" r="3" fill="#F0509B"/><circle cx="16" cy="50" r="2.2" fill="#9B53E8"/><rect x="27" y="27" width="46" height="46" rx="2" fill="none" stroke="rgba(174,180,194,0.4)" stroke-width="1.2"/><circle cx="27" cy="27" r="3" fill="#9B53E8"/><circle cx="50" cy="27" r="2.2" fill="#3F6BF0"/><circle cx="73" cy="27" r="3" fill="#27C7D9"/><circle cx="73" cy="50" r="2.2" fill="#43D49A"/><circle cx="73" cy="73" r="3" fill="#F2C53D"/><circle cx="50" cy="73" r="2.2" fill="#F0509B"/><circle cx="27" cy="73" r="3" fill="#9B53E8"/><circle cx="27" cy="50" r="2.2" fill="#3F6BF0"/><rect x="38" y="38" width="24" height="24" rx="2" fill="none" stroke="rgba(174,180,194,0.4)" stroke-width="1.2"/><circle cx="38" cy="38" r="3" fill="#3F6BF0"/><circle cx="50" cy="38" r="2.2" fill="#27C7D9"/><circle cx="62" cy="38" r="3" fill="#43D49A"/><circle cx="62" cy="50" r="2.2" fill="#F2C53D"/><circle cx="62" cy="62" r="3" fill="#F0509B"/><circle cx="50" cy="62" r="2.2" fill="#9B53E8"/><circle cx="38" cy="62" r="3" fill="#3F6BF0"/><circle cx="38" cy="50" r="2.2" fill="#27C7D9"/><circle cx="50" cy="50" r="3.4" fill="#27C7D9"/></svg>
