<svg xmlns="http://www.w3.org/2000/svg" width="100" height="100" viewBox="0 0 100 100"><defs><linearGradient id="bis-irid-v" x1="0" y1="0" x2="0" y2="1"><stop offset="0%" stop-color="#F2C53D"/><stop offset="25%" stop-color="#43D49A"/><stop offset="50%" stop-color="#27C7D9"/><stop offset="75%" stop-color="#3F6BF0"/><stop offset="100%" stop-color="#F0509B"/></linearGradient></defs><g stroke="url(#bis-irid-v)" stroke-width="3" stroke-linecap="round"><line x1="30" y1="16" x2="30" y2="38" /><line x1="30" y1="38" x2="30" y2="50" /><line x1="30" y1="50" x2="30" y2="62" /><line x1="30" y1="62" x2="30" y2="84" /><line x1="30" y1="16" x2="52" y2="16" /><line x1="52" y1="16" x2="66" y2="27" /><line x1="66" y1="27" x2="52" y2="38" /><line x1="52" y1="38" x2="30" y2="38" /><line x1="30" y1="50" x2="56" y2="50" /><line x1="56" y1="50" x2="72" y2="67" /><line x1="72" y1="67" x2="54" y2="84" /><line x1="54" y1="84" x2="30" y2="84" /></g><circle cx="30" cy="16" r="4" fill="#F0509B"/><circle cx="30" cy="38" r="4" fill="#9B53E8"/><circle cx="30" cy="62" r="4" fill="#3F6BF0"/><circle cx="30" cy="84" r="4" fill="#27C7D9"/><circle cx="52" cy="16" r="4" fill="#43D49A"/><circle cx="66" cy="27" r="4" fill="#F2C53D"/><circle cx="52" cy="38" r="4" fill="#F0509B"/><circle cx="56" cy="50" r="4" fill="#9B53E8"/><circle cx="72" cy="67" r="4" fill="#3F6BF0"/><circle cx="54" cy="84" r="4" fill="#27C7D9"/><circle cx="30" cy="50" r="4" fill="#43D49A"/></svg>
