<svg xmlns="http://www.w3.org/2000/svg" width="100" height="100" viewBox="0 0 100 100"><rect x="14" y="14" width="72" height="72" rx="2" fill="none" stroke="rgba(174,180,194,0.42)" stroke-width="1.3"/><circle cx="14" cy="14" r="3" fill="#F0509B"/><circle cx="86" cy="14" r="3" fill="#F0509B"/><circle cx="86" cy="86" r="3" fill="#F0509B"/><circle cx="14" cy="86" r="3" fill="#F0509B"/><rect x="22" y="22" width="56" height="56" rx="2" fill="none" stroke="rgba(174,180,194,0.42)" stroke-width="1.3"/><circle cx="22" cy="22" r="3" fill="#9B53E8"/><circle cx="78" cy="22" r="3" fill="#9B53E8"/><circle cx="78" cy="78" r="3" fill="#9B53E8"/><circle cx="22" cy="78" r="3" fill="#9B53E8"/><rect x="30" y="30" width="40" height="40" rx="2" fill="none" stroke="rgba(174,180,194,0.42)" stroke-width="1.3"/><circle cx="30" cy="30" r="3" fill="#3F6BF0"/><circle cx="70" cy="30" r="3" fill="#3F6BF0"/><circle cx="70" cy="70" r="3" fill="#3F6BF0"/><circle cx="30" cy="70" r="3" fill="#3F6BF0"/><rect x="38" y="38" width="24" height="24" rx="2" fill="none" stroke="rgba(174,180,194,0.42)" stroke-width="1.3"/><circle cx="38" cy="38" r="3" fill="#27C7D9"/><circle cx="62" cy="38" r="3" fill="#27C7D9"/><circle cx="62" cy="62" r="3" fill="#27C7D9"/><circle cx="38" cy="62" r="3" fill="#27C7D9"/><circle cx="50" cy="50" r="3.8" fill="#27C7D9"/></svg>
