<svg xmlns="http://www.w3.org/2000/svg" width="100" height="100" viewBox="0 0 100 100"><polygon points="50,6 81.113,18.887 94,50 81.113,81.113 50,94 18.887,81.113 6,50 18.887,18.887" fill="#F0509B" stroke="rgba(20,21,27,0.16)" stroke-width="0.7" stroke-linejoin="round"/><polygon points="58.899,14.309 81.53,31.055 85.691,58.899 68.945,81.53 41.101,85.691 18.47,68.945 14.309,41.101 31.055,18.47" fill="#9B53E8" stroke="rgba(20,21,27,0.16)" stroke-width="0.7" stroke-linejoin="round"/><polygon points="63.881,23.893 78.276,41.355 76.107,63.881 58.645,78.276 36.119,76.107 21.724,58.645 23.893,36.119 41.355,21.724" fill="#3F6BF0" stroke="rgba(20,21,27,0.16)" stroke-width="0.7" stroke-linejoin="round"/><polygon points="64.956,33.389 72.321,48.83 66.611,64.956 51.17,72.321 35.044,66.611 27.679,51.17 33.389,35.044 48.83,27.679" fill="#27C7D9" stroke="rgba(20,21,27,0.16)" stroke-width="0.7" stroke-linejoin="round"/><polygon points="62.548,41.536 64.858,52.888 58.464,62.548 47.112,64.858 37.452,58.464 35.142,47.112 41.536,37.452 52.888,35.142" fill="#43D49A" stroke="rgba(20,21,27,0.16)" stroke-width="0.7" stroke-linejoin="round"/><polygon points="57.442,47.291 57.178,53.347 52.709,57.442 46.653,57.178 42.558,52.709 42.822,46.653 47.291,42.558 53.347,42.822" fill="#F2C53D" stroke="rgba(20,21,27,0.16)" stroke-width="0.7" stroke-linejoin="round"/></svg>
