<svg xmlns="http://www.w3.org/2000/svg" width="100" height="100" viewBox="0 0 100 100"><rect x="12" y="12" width="76" height="76" rx="2.5" ry="2.5" transform="rotate(0 50 50)" fill="#F0509B" stroke="rgba(0,0,0,0.18)" stroke-width="0.8"/><rect x="17.193" y="17.193" width="65.613" height="65.613" rx="2.5" ry="2.5" transform="rotate(20 50 50)" fill="#9B53E8" stroke="rgba(0,0,0,0.18)" stroke-width="0.8"/><rect x="22.387" y="22.387" width="55.227" height="55.227" rx="2.5" ry="2.5" transform="rotate(40 50 50)" fill="#3F6BF0" stroke="rgba(0,0,0,0.18)" stroke-width="0.8"/><rect x="27.58" y="27.58" width="44.84" height="44.84" rx="2.5" ry="2.5" transform="rotate(60 50 50)" fill="#27C7D9" stroke="rgba(0,0,0,0.18)" stroke-width="0.8"/><rect x="32.773" y="32.773" width="34.453" height="34.453" rx="2.5" ry="2.5" transform="rotate(80 50 50)" fill="#27C7D9" stroke="rgba(0,0,0,0.18)" stroke-width="0.8"/><rect x="37.967" y="37.967" width="24.067" height="24.067" rx="2.5" ry="2.5" transform="rotate(100 50 50)" fill="#43D49A" stroke="rgba(0,0,0,0.18)" stroke-width="0.8"/><rect x="43.16" y="43.16" width="13.68" height="13.68" rx="2.5" ry="2.5" transform="rotate(120 50 50)" fill="#F2C53D" stroke="rgba(0,0,0,0.18)" stroke-width="0.8"/></svg>
