<svg xmlns="http://www.w3.org/2000/svg" width="100" height="100" viewBox="0 0 100 100"><g stroke="rgba(174,180,194,0.34)" stroke-width="1"><line x1="50" y1="50" x2="50" y2="33" /><line x1="50" y1="33" x2="64.722" y2="41.5" /><line x1="50" y1="50" x2="64.722" y2="41.5" /><line x1="64.722" y1="41.5" x2="64.722" y2="58.5" /><line x1="50" y1="50" x2="64.722" y2="58.5" /><line x1="64.722" y1="58.5" x2="50" y2="67" /><line x1="50" y1="50" x2="50" y2="67" /><line x1="50" y1="67" x2="35.278" y2="58.5" /><line x1="50" y1="50" x2="35.278" y2="58.5" /><line x1="35.278" y1="58.5" x2="35.278" y2="41.5" /><line x1="50" y1="50" x2="35.278" y2="41.5" /><line x1="35.278" y1="41.5" x2="50" y2="33" /><line x1="50" y1="14" x2="50" y2="33" /><line x1="68" y1="18.823" x2="50" y2="33" /><line x1="81.177" y1="32" x2="64.722" y2="41.5" /><line x1="86" y1="50" x2="64.722" y2="41.5" /><line x1="81.177" y1="68" x2="64.722" y2="58.5" /><line x1="68" y1="81.177" x2="64.722" y2="58.5" /><line x1="50" y1="86" x2="50" y2="67" /><line x1="32" y1="81.177" x2="50" y2="67" /><line x1="18.823" y1="68" x2="35.278" y2="58.5" /><line x1="14" y1="50" x2="35.278" y2="58.5" /><line x1="18.823" y1="32" x2="35.278" y2="41.5" /><line x1="32" y1="18.823" x2="35.278" y2="41.5" /></g><circle cx="50" cy="14" r="2.6" fill="#F0509B"/><circle cx="68" cy="18.823" r="2.6" fill="#9B53E8"/><circle cx="81.177" cy="32" r="2.6" fill="#3F6BF0"/><circle cx="86" cy="50" r="2.6" fill="#27C7D9"/><circle cx="81.177" cy="68" r="2.6" fill="#43D49A"/><circle cx="68" cy="81.177" r="2.6" fill="#F2C53D"/><circle cx="50" cy="86" r="2.6" fill="#F0509B"/><circle cx="32" cy="81.177" r="2.6" fill="#9B53E8"/><circle cx="18.823" cy="68" r="2.6" fill="#3F6BF0"/><circle cx="14" cy="50" r="2.6" fill="#27C7D9"/><circle cx="18.823" cy="32" r="2.6" fill="#43D49A"/><circle cx="32" cy="18.823" r="2.6" fill="#F2C53D"/><circle cx="50" cy="33" r="3.2" fill="#F0509B"/><circle cx="64.722" cy="41.5" r="3.2" fill="#9B53E8"/><circle cx="64.722" cy="58.5" r="3.2" fill="#3F6BF0"/><circle cx="50" cy="67" r="3.2" fill="#27C7D9"/><circle cx="35.278" cy="58.5" r="3.2" fill="#43D49A"/><circle cx="35.278" cy="41.5" r="3.2" fill="#F2C53D"/><circle cx="50" cy="50" r="4.4" fill="#27C7D9"/></svg>
